<?xml version="1.0" encoding="UTF-8"?>
<svg id="Camada_1" data-name="Camada 1" xmlns="http://www.w3.org/2000/svg" viewBox="0 0 503.52 237.62">
  <defs>
    <style>
      .cls-1 {
        fill: #753199;
      }

      .cls-2 {
        fill: none;
        stroke: #b059ed;
        stroke-miterlimit: 10;
        stroke-width: 2px;
      }
    </style>
  </defs>
  <path class="cls-1" d="m228.91,48.96s-28.73,7.66-78.53,0c-49.8-7.66-110.14,4.79-112.06,58.42-1.92,53.63,39.27,127.38,143.66,79.49,104.39-47.89,113.01,22.99,187.72,22.03,74.7-.96,134.85-125.56,27.77-179.1-40.23-20.11-71.83-12.45-168.56,19.15Z"/>
  <path class="cls-2" d="m238.67,58.98s-28.73,7.66-78.53,0c-49.8-7.66-110.14,4.79-112.06,58.42-1.92,53.63,39.27,127.38,143.66,79.49,104.39-47.89,113.01,22.99,187.72,22.03,74.7-.96,134.85-125.56,27.77-179.1-40.23-20.11-71.83-12.45-168.56,19.15Z"/>
</svg>